<svg width="715" height="610" viewBox="0 0 715 610" fill="none" xmlns="http://www.w3.org/2000/svg">
<path d="M423.092 10.4224L134.991 183.777C54.8812 231.98 26.6669 337.355 71.9728 419.138C112.572 492.426 203.68 516.82 275.468 473.624L544.539 311.721C567.644 297.818 575.782 267.426 562.715 243.838C549.648 220.25 520.324 212.398 497.218 226.301L221.703 392.082C191.549 410.226 153.28 399.979 136.226 369.195C119.173 338.411 129.793 298.747 159.947 280.603L429.903 118.167C456.294 102.287 466.409 68.1135 452.937 40.3505L441.005 15.7623C438.863 11.3491 434.494 8.57884 429.676 8.57885C427.371 8.57885 425.098 9.21542 423.092 10.4224Z" fill="#D9D9D9" stroke="#161719" stroke-width="15"/>
<path d="M290.08 599.659L579.037 423.38C658.99 374.605 686.91 269.087 641.535 187.18C600.936 113.892 509.828 89.4982 438.04 132.694L168.969 294.597C145.864 308.5 137.726 338.892 150.793 362.481C163.861 386.069 193.184 393.92 216.29 380.017L491.805 214.236C521.959 196.092 560.228 206.339 577.282 237.123C594.336 267.907 583.715 307.571 553.561 325.715L300.252 478.135C264.391 499.713 250.219 545.857 267.74 583.988L272.459 594.256C273.052 595.546 273.85 596.721 274.822 597.734C278.822 601.904 285.103 602.696 290.08 599.659Z" fill="#D9D9D9" stroke="#161719" stroke-width="15"/>
</svg>
