<svg id="visual" viewBox="0 0 900 600" width="900" height="600" xmlns="http://www.w3.org/2000/svg" xmlns:xlink="http://www.w3.org/1999/xlink" version="1.1"><rect x="0" y="0" width="900" height="600" fill="#FA7268"></rect><path d="M777 0L767.3 16.7C757.7 33.3 738.3 66.7 717.7 100C697 133.3 675 166.7 679.8 200C684.7 233.3 716.3 266.7 735.7 300C755 333.3 762 366.7 744.2 400C726.3 433.3 683.7 466.7 682.7 500C681.7 533.3 722.3 566.7 742.7 583.3L763 600L0 600L0 583.3C0 566.7 0 533.3 0 500C0 466.7 0 433.3 0 400C0 366.7 0 333.3 0 300C0 266.7 0 233.3 0 200C0 166.7 0 133.3 0 100C0 66.7 0 33.3 0 16.7L0 0Z" fill="#f5867f"></path><path d="M647 0L643 16.7C639 33.3 631 66.7 614 100C597 133.3 571 166.7 560 200C549 233.3 553 266.7 572.8 300C592.7 333.3 628.3 366.7 638.5 400C648.7 433.3 633.3 466.7 609.7 500C586 533.3 554 566.7 538 583.3L522 600L0 600L0 583.3C0 566.7 0 533.3 0 500C0 466.7 0 433.3 0 400C0 366.7 0 333.3 0 300C0 266.7 0 233.3 0 200C0 166.7 0 133.3 0 100C0 66.7 0 33.3 0 16.7L0 0Z" fill="#eb7076"></path><path d="M431 0L441 16.7C451 33.3 471 66.7 467.2 100C463.3 133.3 435.7 166.7 432.5 200C429.3 233.3 450.7 266.7 454.3 300C458 333.3 444 366.7 425.8 400C407.7 433.3 385.3 466.7 395.2 500C405 533.3 447 566.7 468 583.3L489 600L0 600L0 583.3C0 566.7 0 533.3 0 500C0 466.7 0 433.3 0 400C0 366.7 0 333.3 0 300C0 266.7 0 233.3 0 200C0 166.7 0 133.3 0 100C0 66.7 0 33.3 0 16.7L0 0Z" fill="#e05970"></path><path d="M256 0L251.8 16.7C247.7 33.3 239.3 66.7 250.8 100C262.3 133.3 293.7 166.7 314.5 200C335.3 233.3 345.7 266.7 344.3 300C343 333.3 330 366.7 331.2 400C332.3 433.3 347.7 466.7 351.8 500C356 533.3 349 566.7 345.5 583.3L342 600L0 600L0 583.3C0 566.7 0 533.3 0 500C0 466.7 0 433.3 0 400C0 366.7 0 333.3 0 300C0 266.7 0 233.3 0 200C0 166.7 0 133.3 0 100C0 66.7 0 33.3 0 16.7L0 0Z" fill="#d4416b"></path><path d="M194 0L188.2 16.7C182.3 33.3 170.7 66.7 172.5 100C174.3 133.3 189.7 166.7 180.5 200C171.3 233.3 137.7 266.7 124.3 300C111 333.3 118 366.7 114.7 400C111.3 433.3 97.7 466.7 105 500C112.3 533.3 140.7 566.7 154.8 583.3L169 600L0 600L0 583.3C0 566.7 0 533.3 0 500C0 466.7 0 433.3 0 400C0 366.7 0 333.3 0 300C0 266.7 0 233.3 0 200C0 166.7 0 133.3 0 100C0 66.7 0 33.3 0 16.7L0 0Z" fill="#c62368"></path></svg>