<svg id="visual" viewBox="0 0 900 600" width="900" height="600" xmlns="http://www.w3.org/2000/svg" xmlns:xlink="http://www.w3.org/1999/xlink" version="1.1"><path d="M719 600L714.5 590.8C710 581.7 701 563.3 689 545.2C677 527 662 509 672.5 490.8C683 472.7 719 454.3 744.5 436.2C770 418 785 400 773 381.8C761 363.7 722 345.3 725 327.2C728 309 773 291 783.5 272.8C794 254.7 770 236.3 758 218.2C746 200 746 182 744.5 163.8C743 145.7 740 127.3 723.5 109.2C707 91 677 73 674 54.8C671 36.7 695 18.3 707 9.2L719 0L900 0L900 9.2C900 18.3 900 36.7 900 54.8C900 73 900 91 900 109.2C900 127.3 900 145.7 900 163.8C900 182 900 200 900 218.2C900 236.3 900 254.7 900 272.8C900 291 900 309 900 327.2C900 345.3 900 363.7 900 381.8C900 400 900 418 900 436.2C900 454.3 900 472.7 900 490.8C900 509 900 527 900 545.2C900 563.3 900 581.7 900 590.8L900 600Z" fill="#121213"></path><path d="M647 600L638 590.8C629 581.7 611 563.3 600.5 545.2C590 527 587 509 584 490.8C581 472.7 578 454.3 594.5 436.2C611 418 647 400 641 381.8C635 363.7 587 345.3 596 327.2C605 309 671 291 695 272.8C719 254.7 701 236.3 678.5 218.2C656 200 629 182 621.5 163.8C614 145.7 626 127.3 618.5 109.2C611 91 584 73 575 54.8C566 36.7 575 18.3 579.5 9.2L584 0L720 0L708 9.2C696 18.3 672 36.7 675 54.8C678 73 708 91 724.5 109.2C741 127.3 744 145.7 745.5 163.8C747 182 747 200 759 218.2C771 236.3 795 254.7 784.5 272.8C774 291 729 309 726 327.2C723 345.3 762 363.7 774 381.8C786 400 771 418 745.5 436.2C720 454.3 684 472.7 673.5 490.8C663 509 678 527 690 545.2C702 563.3 711 581.7 715.5 590.8L720 600Z" fill="#1e1e21"></path><path d="M494 600L497 590.8C500 581.7 506 563.3 498.5 545.2C491 527 470 509 467 490.8C464 472.7 479 454.3 494 436.2C509 418 524 400 516.5 381.8C509 363.7 479 345.3 492.5 327.2C506 309 563 291 582.5 272.8C602 254.7 584 236.3 560 218.2C536 200 506 182 506 163.8C506 145.7 536 127.3 537.5 109.2C539 91 512 73 489.5 54.8C467 36.7 449 18.3 440 9.2L431 0L585 0L580.5 9.2C576 18.3 567 36.7 576 54.8C585 73 612 91 619.5 109.2C627 127.3 615 145.7 622.5 163.8C630 182 657 200 679.5 218.2C702 236.3 720 254.7 696 272.8C672 291 606 309 597 327.2C588 345.3 636 363.7 642 381.8C648 400 612 418 595.5 436.2C579 454.3 582 472.7 585 490.8C588 509 591 527 601.5 545.2C612 563.3 630 581.7 639 590.8L648 600Z" fill="#38383c"></path><path d="M224 600L213.5 590.8C203 581.7 182 563.3 174.5 545.2C167 527 173 509 191 490.8C209 472.7 239 454.3 260 436.2C281 418 293 400 288.5 381.8C284 363.7 263 345.3 239 327.2C215 309 188 291 170 272.8C152 254.7 143 236.3 171.5 218.2C200 200 266 182 288.5 163.8C311 145.7 290 127.3 287 109.2C284 91 299 73 279.5 54.8C260 36.7 206 18.3 179 9.2L152 0L432 0L441 9.2C450 18.3 468 36.7 490.5 54.8C513 73 540 91 538.5 109.2C537 127.3 507 145.7 507 163.8C507 182 537 200 561 218.2C585 236.3 603 254.7 583.5 272.8C564 291 507 309 493.5 327.2C480 345.3 510 363.7 517.5 381.8C525 400 510 418 495 436.2C480 454.3 465 472.7 468 490.8C471 509 492 527 499.5 545.2C507 563.3 501 581.7 498 590.8L495 600Z" fill="#1e1e21"></path><path d="M0 600L0 590.8C0 581.7 0 563.3 0 545.2C0 527 0 509 0 490.8C0 472.7 0 454.3 0 436.2C0 418 0 400 0 381.8C0 363.7 0 345.3 0 327.2C0 309 0 291 0 272.8C0 254.7 0 236.3 0 218.2C0 200 0 182 0 163.8C0 145.7 0 127.3 0 109.2C0 91 0 73 0 54.8C0 36.7 0 18.3 0 9.2L0 0L153 0L180 9.2C207 18.3 261 36.7 280.5 54.8C300 73 285 91 288 109.2C291 127.3 312 145.7 289.5 163.8C267 182 201 200 172.5 218.2C144 236.3 153 254.7 171 272.8C189 291 216 309 240 327.2C264 345.3 285 363.7 289.5 381.8C294 400 282 418 261 436.2C240 454.3 210 472.7 192 490.8C174 509 168 527 175.5 545.2C183 563.3 204 581.7 214.5 590.8L225 600Z" fill="#121213"></path></svg>