<svg width="1580" height="2268" viewBox="0 0 1580 2268" fill="none" xmlns="http://www.w3.org/2000/svg">
<path d="M1579.8 1589.52L1267.16 1409.92L1270.49 1105.6L1579.8 1285.2V1589.52Z" fill="#8C35E9"/>
<path d="M791.562 2046.83L309.309 1404.93L791.562 1684.31V2046.83Z" fill="#9233EA"/>
<path d="M791.562 2046.83L0.00120409 1587.86L309.309 1404.93L791.562 2046.83Z" fill="#9233EA"/>
<path d="M791.562 2046.83V1684.31L1267.16 1409.92L1579.8 1589.52L791.562 2046.83Z" fill="#8E35E9"/>
<path d="M1267.17 1409.92L1024.38 1172.12L788.238 935.982L1270.49 1105.6L1267.17 1409.92Z" fill="#8B37E9"/>
<path d="M0 678.224L312.633 857.822L309.308 1162.14L0 982.542V678.224Z" fill="#7C3AE8"/>
<path d="M788.234 220.915L1270.49 862.811L788.234 583.436V220.915Z" fill="#693FE7"/>
<path d="M788.234 220.915L1579.8 679.887L1270.49 862.811L788.234 220.915Z" fill="#6241E6"/>
<path d="M788.235 220.915V583.436L312.633 857.822L0 678.224L788.235 220.915Z" fill="#703DE8"/>
<path d="M312.634 857.823L540.458 1113.92L761.629 1368.35L309.309 1162.14L312.634 857.823Z" fill="#8437E8"/>
</svg>
