<svg id="visual" viewBox="0 0 960 540" width="960" height="540" xmlns="http://www.w3.org/2000/svg" xmlns:xlink="http://www.w3.org/1999/xlink" version="1.1"><rect x="0" y="0" width="960" height="540" fill="#171619"></rect><path d="M467 0L505 45C543 90 619 180 675.8 270C732.7 360 770.3 450 789.2 495L808 540L0 540L0 495C0 450 0 360 0 270C0 180 0 90 0 45L0 0Z" fill="#45424c"></path><path d="M653 0L661.5 45C670 90 687 180 687.3 270C687.7 360 671.3 450 663.2 495L655 540L0 540L0 495C0 450 0 360 0 270C0 180 0 90 0 45L0 0Z" fill="#39363e"></path><path d="M386 0L409 45C432 90 478 180 474.7 270C471.3 360 418.7 450 392.3 495L366 540L0 540L0 495C0 450 0 360 0 270C0 180 0 90 0 45L0 0Z" fill="#2d2b31"></path><path d="M231 0L262.5 45C294 90 357 180 333.3 270C309.7 360 199.3 450 144.2 495L89 540L0 540L0 495C0 450 0 360 0 270C0 180 0 90 0 45L0 0Z" fill="#222025"></path><path d="M39 0L35.5 45C32 90 25 180 34.3 270C43.7 360 69.3 450 82.2 495L95 540L0 540L0 495C0 450 0 360 0 270C0 180 0 90 0 45L0 0Z" fill="#171619"></path></svg>