<svg id="visual" viewBox="0 0 900 600" width="900" height="600" xmlns="http://www.w3.org/2000/svg" xmlns:xlink="http://www.w3.org/1999/xlink" version="1.1"><rect x="0" y="0" width="900" height="600" fill="#356966"></rect><path d="M670 0L660.8 25C651.7 50 633.3 100 636.2 150C639 200 663 250 662.8 300C662.7 350 638.3 400 628.2 450C618 500 622 550 624 575L626 600L0 600L0 575C0 550 0 500 0 450C0 400 0 350 0 300C0 250 0 200 0 150C0 100 0 50 0 25L0 0Z" fill="#ffffff"></path><path d="M453 0L457.3 25C461.7 50 470.3 100 477.3 150C484.3 200 489.7 250 496.3 300C503 350 511 400 503.8 450C496.7 500 474.3 550 463.2 575L452 600L0 600L0 575C0 550 0 500 0 450C0 400 0 350 0 300C0 250 0 200 0 150C0 100 0 50 0 25L0 0Z" fill="#fff2c8"></path><path d="M309 0L318.5 25C328 50 347 100 343.3 150C339.7 200 313.3 250 308.8 300C304.3 350 321.7 400 330.8 450C340 500 341 550 341.5 575L342 600L0 600L0 575C0 550 0 500 0 450C0 400 0 350 0 300C0 250 0 200 0 150C0 100 0 50 0 25L0 0Z" fill="#fee592"></path><path d="M198 0L198.8 25C199.7 50 201.3 100 194.7 150C188 200 173 250 164.2 300C155.3 350 152.7 400 159.5 450C166.3 500 182.7 550 190.8 575L199 600L0 600L0 575C0 550 0 500 0 450C0 400 0 350 0 300C0 250 0 200 0 150C0 100 0 50 0 25L0 0Z" fill="#f9d957"></path></svg>