<svg id="visual" viewBox="0 0 900 600" width="900" height="600" xmlns="http://www.w3.org/2000/svg" xmlns:xlink="http://www.w3.org/1999/xlink" version="1.1"><path d="M566 600L572 575C578 550 590 500 618.5 450C647 400 692 350 707 300C722 250 707 200 714.5 150C722 100 752 50 767 25L782 0L900 0L900 25C900 50 900 100 900 150C900 200 900 250 900 300C900 350 900 400 900 450C900 500 900 550 900 575L900 600Z" fill="#121213"></path><path d="M413 600L429.5 575C446 550 479 500 509 450C539 400 566 350 587 300C608 250 623 200 644 150C665 100 692 50 705.5 25L719 0L783 0L768 25C753 50 723 100 715.5 150C708 200 723 250 708 300C693 350 648 400 619.5 450C591 500 579 550 573 575L567 600Z" fill="#1e1e21"></path><path d="M215 600L233 575C251 550 287 500 330.5 450C374 400 425 350 452 300C479 250 482 200 486.5 150C491 100 497 50 500 25L503 0L720 0L706.5 25C693 50 666 100 645 150C624 200 609 250 588 300C567 350 540 400 510 450C480 500 447 550 430.5 575L414 600Z" fill="#38383c"></path><path d="M62 600L66.5 575C71 550 80 500 84.5 450C89 400 89 350 90.5 300C92 250 95 200 101 150C107 100 116 50 120.5 25L125 0L504 0L501 25C498 50 492 100 487.5 150C483 200 480 250 453 300C426 350 375 400 331.5 450C288 500 252 550 234 575L216 600Z" fill="#1e1e21"></path><path d="M0 600L0 575C0 550 0 500 0 450C0 400 0 350 0 300C0 250 0 200 0 150C0 100 0 50 0 25L0 0L126 0L121.5 25C117 50 108 100 102 150C96 200 93 250 91.5 300C90 350 90 400 85.5 450C81 500 72 550 67.5 575L63 600Z" fill="#121213"></path></svg>