<svg width="1580" height="2268" viewBox="0 0 1580 2268" fill="none" xmlns="http://www.w3.org/2000/svg">
<path d="M1579.8 1589.52L1267.16 1409.92L1270.49 1105.6L1579.8 1285.2V1589.52Z" fill="#94CF96"/>
<path d="M791.562 2046.83L309.308 1404.93L791.562 1684.31V2046.83Z" fill="#70BF73"/>
<path d="M791.562 2046.83L0.00021837 1587.86L309.308 1404.93L791.562 2046.83Z" fill="#5EB762"/>
<path d="M791.562 2046.83V1684.31L1267.16 1409.92L1579.8 1589.52L791.562 2046.83Z" fill="#82C785"/>
<path d="M1267.16 1409.92L1024.37 1172.12L788.237 935.982L1270.49 1105.6L1267.16 1409.92Z" fill="#A6D7A8"/>
<path d="M0 678.224L312.633 857.822L309.308 1162.14L0 982.542V678.224Z" fill="#357A38"/>
<path d="M788.235 220.915L1270.49 862.811L788.235 583.436V220.915Z" fill="#449E48"/>
<path d="M788.235 220.915L1579.8 679.887L1270.49 862.811L788.235 220.915Z" fill="#4CAF50"/>
<path d="M788.235 220.915V583.436L312.633 857.822L0 678.224L788.235 220.915Z" fill="#3D8C40"/>
<path d="M312.633 857.823L540.456 1113.92L761.627 1368.35L309.307 1162.14L312.633 857.823Z" fill="#2E6930"/>
</svg>
