<svg id="visual" viewBox="0 0 960 540" width="960" height="540" xmlns="http://www.w3.org/2000/svg" xmlns:xlink="http://www.w3.org/1999/xlink" version="1.1"><path d="M0 299L26.7 288.5C53.3 278 106.7 257 160 248.8C213.3 240.7 266.7 245.3 320 255.5C373.3 265.7 426.7 281.3 480 287.3C533.3 293.3 586.7 289.7 640 278.8C693.3 268 746.7 250 800 238.7C853.3 227.3 906.7 222.7 933.3 220.3L960 218L960 0L933.3 0C906.7 0 853.3 0 800 0C746.7 0 693.3 0 640 0C586.7 0 533.3 0 480 0C426.7 0 373.3 0 320 0C266.7 0 213.3 0 160 0C106.7 0 53.3 0 26.7 0L0 0Z" fill="#1D2935" stroke-linecap="round" stroke-linejoin="miter"></path></svg>