<svg id="visual" viewBox="0 0 900 600" width="900" height="600" xmlns="http://www.w3.org/2000/svg" xmlns:xlink="http://www.w3.org/1999/xlink" version="1.1"><path d="M872 600L872 575C872 550 872 500 866 450C860 400 848 350 846.5 300C845 250 854 200 834.5 150C815 100 767 50 743 25L719 0L900 0L900 25C900 50 900 100 900 150C900 200 900 250 900 300C900 350 900 400 900 450C900 500 900 550 900 575L900 600Z" fill="#121213"></path><path d="M809 600L800 575C791 550 773 500 687.5 450C602 400 449 350 450.5 300C452 250 608 200 644 150C680 100 596 50 554 25L512 0L720 0L744 25C768 50 816 100 835.5 150C855 200 846 250 847.5 300C849 350 861 400 867 450C873 500 873 550 873 575L873 600Z" fill="#1e1e21"></path><path d="M305 600L273.5 575C242 550 179 500 156.5 450C134 400 152 350 195.5 300C239 250 308 200 312.5 150C317 100 257 50 227 25L197 0L513 0L555 25C597 50 681 100 645 150C609 200 453 250 451.5 300C450 350 603 400 688.5 450C774 500 792 550 801 575L810 600Z" fill="#38383c"></path><path d="M170 600L150.5 575C131 550 92 500 78.5 450C65 400 77 350 86 300C95 250 101 200 113 150C125 100 143 50 152 25L161 0L198 0L228 25C258 50 318 100 313.5 150C309 200 240 250 196.5 300C153 350 135 400 157.5 450C180 500 243 550 274.5 575L306 600Z" fill="#1e1e21"></path><path d="M0 600L0 575C0 550 0 500 0 450C0 400 0 350 0 300C0 250 0 200 0 150C0 100 0 50 0 25L0 0L162 0L153 25C144 50 126 100 114 150C102 200 96 250 87 300C78 350 66 400 79.5 450C93 500 132 550 151.5 575L171 600Z" fill="#121213"></path></svg>